# xmcd CD database file
#
# Track frame offsets:
#	150
#	17612
#	31412
#	47460
#
# Disc length: 816 seconds
#
# Revision: 0
# Processed by: cddbd v1.4PL0 Copyright (c) Steve Scherf et al.
# Submitted via: CdAid 2001.05.15.01
#
DISCID=23032e04
DTITLE=Reckless Drivin - Self Titled
DYEAR=1900
DGENRE=
TTITLE0=Our Last Date
TTITLE1=Pretty Little Lights Of Town
TTITLE2=When It All Began
TTITLE3=To Be Young
EXTD=Local Syracuse New York Band
EXTT0=
EXTT1=
EXTT2=
EXTT3=
PLAYORDER=
